<?xml version="1.0" encoding="utf-8"?>
<svg version="1.1" xmlns:xlink="http://www.w3.org/1999/xlink" width="58px" height="52px" xmlns="http://www.w3.org/2000/svg">
  <g transform="matrix(1 0 0 1 -1288 -91 )">
    <path d="M 23.59948979591837 47.551562499999996  C 23.57482993197279 47.700520833333336  23.59948979591837 47.88333333333334  23.6734693877551 48.1  C 23.6734693877551 48.208333333333336  23.68579931972789 48.479166666666664  23.710459183673468 48.9125  C 23.73511904761905 49.34583333333333  23.741284013605444 49.7046875  23.728954081632654 49.989062499999996  C 23.716624149659868 50.2734375  23.6796343537415 50.59166666666667  23.617984693877553 50.94375  C 23.556335034013607 51.29583333333334  23.433035714285715 51.559895833333336  23.248086734693878 51.7359375  C 23.06313775510204 51.91197916666667  22.810374149659868 52  22.489795918367346 52  L 10.653061224489797 52  C 7.718537414965987 52  5.209396258503402 50.85572916666666  3.1256377551020407 48.567187499999996  C 1.0418792517006803 46.278645833333336  0 43.52291666666666  0 40.300000000000004  L 0 11.7  C 0 8.477083333333326  1.0418792517006803 5.721354166666664  3.1256377551020407 3.432812500000001  C 5.209396258503402 1.144270833333326  7.718537414965987 0  10.653061224489797 0  L 22.489795918367346 0  C 22.810374149659868 0  23.08779761904762 0.12864583333332602  23.322066326530614 0.38593750000000115  C 23.556335034013607 0.6432291666666647  23.6734693877551 0.9479166666666647  23.6734693877551 1.3000000000000012  C 23.6734693877551 1.4083333333333283  23.68579931972789 1.6791666666666636  23.710459183673468 2.112500000000001  C 23.73511904761905 2.545833333333327  23.741284013605444 2.9046875000000023  23.728954081632654 3.1890624999999977  C 23.716624149659868 3.473437499999999  23.6796343537415 3.7916666666666647  23.617984693877553 4.143750000000001  C 23.556335034013607 4.4958333333333265  23.433035714285715 4.759895833333328  23.248086734693878 4.935937500000002  C 23.06313775510204 5.111979166666664  22.810374149659868 5.199999999999999  22.489795918367346 6  L 10.653061224489797 6  C 9.025510204081632 5.199999999999999  7.6322278911564645 5.836458333333325  6.4732142857142865 7.109375  C 5.314200680272109 8.382291666666664  4.73469387755102 9.912500000000001  5 11.7  L 5 40.300000000000004  C 4.73469387755102 42.0875  5.314200680272109 43.617708333333326  6.4732142857142865 44.890625  C 7.6322278911564645 46.16354166666666  9.025510204081632 46.800000000000004  10.653061224489797 46  L 21.306122448979593 46  L 21.71301020408163 46.800000000000004  L 22.193877551020407 46.800000000000004  C 22.193877551020407 46.800000000000004  22.335671768707485 46.81354166666666  22.61926020408163 46.840624999999996  C 22.902848639455783 46.86770833333334  23.044642857142854 46.90833333333333  23.044642857142854 46.9625  C 23.044642857142854 47.01666666666666  23.143282312925173 47.091145833333336  23.340561224489797 47.1859375  C 23.537840136054424 47.28072916666666  23.62414965986395 47.40260416666666  23.59948979591837 47.551562499999996  Z M 57.29719387755102 24.171875  C 57.76573129251701 24.686458333333334  58 25.295833333333334  58 26  C 58 26.704166666666662  57.76573129251701 27.313541666666662  57.29719387755102 27.828125  L 37.17474489795919 49.928125  C 36.70620748299319 50.442708333333336  36.15136054421769 50.699999999999996  35.51020408163265 50.699999999999996  C 34.86904761904762 50.699999999999996  34.31420068027211 50.442708333333336  33.84566326530612 49.928125  C 33.377125850340136 49.41354166666666  33.14285714285714 48.80416666666666  33 48.1  L 33 36  L 16.57142857142857 36  C 15.930272108843537 36.4  15.375425170068027 36.14270833333333  14.906887755102042 35.628125000000004  C 14.438350340136054 35.11354166666666  14.204081632653061 34.50416666666666  15 33.800000000000004  L 15 18.2  C 14.204081632653061 17.495833333333326  14.438350340136054 16.886458333333326  14.906887755102042 16.371875  C 15.375425170068027 15.857291666666665  15.930272108843537 15.600000000000001  16.57142857142857 16  L 33 16  L 33 3.8999999999999977  C 33.14285714285714 3.195833333333325  33.377125850340136 2.586458333333325  33.84566326530612 2.0718749999999977  C 34.31420068027211 1.5572916666666647  34.86904761904762 1.3000000000000012  35.51020408163265 1.3000000000000012  C 36.15136054421769 1.3000000000000012  36.70620748299319 1.5572916666666647  37.17474489795919 2.0718749999999977  L 57.29719387755102 24.171875  Z " fill-rule="nonzero" fill="#d9001b" stroke="none" transform="matrix(1 0 0 1 1288 91 )" />
  </g>
</svg>