<?xml version="1.0" encoding="utf-8"?>
<svg version="1.1" xmlns:xlink="http://www.w3.org/1999/xlink" width="48px" height="45px" xmlns="http://www.w3.org/2000/svg">
  <g transform="matrix(1 0 0 1 -1064 0 )">
    <path d="M 19.53061224489796 41.150390625  C 19.510204081632654 41.279296875  19.53061224489796 41.4375  19.591836734693878 41.625  C 19.591836734693878 41.71875  19.602040816326532 41.953125  19.622448979591837 42.328125  C 19.642857142857146 42.703125  19.64795918367347 43.013671875  19.637755102040817 43.259765625  C 19.627551020408166 43.505859375  19.596938775510207 43.78125  19.54591836734694 44.0859375  C 19.494897959183675 44.39062500000001  19.392857142857142 44.619140625  19.23979591836735 44.771484375  C 19.086734693877553 44.923828125  18.877551020408166 45  18.612244897959183 45  L 8.816326530612246 45  C 6.387755102040817 45  4.311224489795919 44.00976562499999  2.586734693877551 42.029296875  C 0.8622448979591837 40.048828125  0 37.6640625  0 34.875  L 0 10.124999999999998  C 0 7.335937499999993  0.8622448979591837 4.951171874999998  2.586734693877551 2.970703125000001  C 4.311224489795919 0.9902343749999937  6.387755102040817 0  8.816326530612246 0  L 18.612244897959183 0  C 18.877551020408166 0  19.107142857142858 0.11132812499999367  19.301020408163264 0.333984375000001  C 19.494897959183675 0.5566406249999983  19.591836734693878 0.8203124999999983  19.591836734693878 1.1250000000000009  C 19.591836734693878 1.2187499999999956  19.602040816326532 1.4531249999999973  19.622448979591837 1.8281250000000009  C 19.642857142857146 2.2031249999999947  19.64795918367347 2.5136718750000018  19.637755102040817 2.7597656249999982  C 19.627551020408166 3.005859374999999  19.596938775510207 3.2812499999999982  19.54591836734694 3.585937500000001  C 19.494897959183675 3.890624999999994  19.392857142857142 4.119140624999996  19.23979591836735 4.271484375000002  C 19.086734693877553 4.423828124999998  18.877551020408166 4.499999999999999  18.612244897959183 4.499999999999999  L 8.816326530612246 4.499999999999999  C 7.469387755102041 4.499999999999999  6.316326530612246 5.050781249999993  5.357142857142858 6.15234375  C 4.3979591836734695 7.253906249999997  3.9183673469387754 8.578125000000002  4 10.124999999999998  L 4 34.875  C 3.9183673469387754 36.421875  4.3979591836734695 37.74609374999999  5.357142857142858 38.84765625  C 6.316326530612246 39.94921875  7.469387755102041 40.5  8.816326530612246 40.5  L 17.63265306122449 40.5  L 17.96938775510204 40.5  L 18.36734693877551 40.5  C 18.36734693877551 40.5  18.484693877551024 40.51171874999999  18.71938775510204 40.53515625  C 18.954081632653065 40.55859375  19.07142857142857 40.59375  19.07142857142857 40.640625  C 19.07142857142857 40.68749999999999  19.153061224489797 40.751953125  19.316326530612244 40.833984375  C 19.479591836734695 40.916015625  19.551020408163268 41.02148437499999  19.53061224489796 41.150390625  Z M 47.41836734693877 20.91796875  C 47.80612244897959 21.36328125  48 21.890625  48 22.5  C 48 23.109374999999996  47.80612244897959 23.636718749999996  47.41836734693877 24.08203125  L 30.765306122448983 43.20703125  C 30.377551020408163 43.65234375  29.91836734693878 43.875  29.387755102040817 43.875  C 28.85714285714286 43.875  28.39795918367347 43.65234375  28.01020408163265 43.20703125  C 27.622448979591837 42.76171875  27.428571428571427 42.234375  27 41.625  L 27 31  L 13.714285714285714 31  C 13.183673469387756 31.499999999999996  12.724489795918368 31.27734375  12.336734693877553 30.83203125  C 11.948979591836734 30.386718749999996  11.755102040816325 29.859374999999996  12 29.25  L 12 15.749999999999998  C 11.755102040816325 15.140624999999993  11.948979591836734 14.613281249999993  12.336734693877553 14.167968749999998  C 12.724489795918368 13.72265625  13.183673469387756 13.500000000000002  13.714285714285714 14  L 27 14  L 27 3.3749999999999982  C 27.428571428571427 2.765624999999993  27.622448979591837 2.238281249999993  28.01020408163265 1.792968749999998  C 28.39795918367347 1.3476562499999982  28.85714285714286 1.1250000000000009  29.387755102040817 1.1250000000000009  C 29.91836734693878 1.1250000000000009  30.377551020408163 1.3476562499999982  30.765306122448983 1.792968749999998  L 47.41836734693877 20.91796875  Z " fill-rule="nonzero" fill="#d9001b" stroke="none" transform="matrix(1 0 0 1 1064 0 )" />
  </g>
</svg>