<?xml version="1.0" encoding="utf-8"?>
<svg version="1.1" xmlns:xlink="http://www.w3.org/1999/xlink" width="53px" height="45px" xmlns="http://www.w3.org/2000/svg">
  <g transform="matrix(1 0 0 1 -996 0 )">
    <path d="M 45.3816604708798 25.709275136399064  C 45.40355225113589 25.75604053000779  45.41449814126394 25.82618862042089  45 25.919719407638347  L 45 42.755261106780985  C 45.41449814126394 43.363211223694464  45.206526228831066 43.88932190179267  44.7905824039653 44.3335931410756  C 44.37463857909955 44.77786438035854  43.88207352333747 45  43.31288723667905 45  L 30 45  L 30 31.531566640685895  L 23 31.531566640685895  L 23 45  L 9.687112763320942 45  C 9.117926476662538 45  8.625361420900456 44.77786438035854  8.209417596034696 44.3335931410756  C 7.793473771168939 43.88932190179267  7.585501858736059 43.363211223694464  8 42.755261106780985  L 8 25.919719407638347  C 7.585501858736059 25.89633671083398  7.5909748038000835 25.861262665627436  7.601920693928129 25.814497272018706  C 7.612866584056176 25.767731878409975  7.618339529120199 25.73265783320343  7.618339529120199 25.709275136399064  L 26.5 9.084177708495712  L 45.3816604708798 25.709275136399064  Z M 52.96716232961586 22.67537022603274  C 52.98905410987196 22.99103663289166  52.912432878975636 23.265783320342944  52.73729863692689 23.499610288386595  L 50.70136307311029 26.095089633671087  C 50.52622883106155 26.30553390491037  50.29636513837258 26.434138737334372  50.011771995043375 26.480904130943102  L 49.913258983890955 26.480904130943102  C 49.62866584056175 26.480904130943102  49.398802147872786 26.399064692127823  49.22366790582404 26.235385814497267  L 26.5 5.997661730319564  L 3.7763320941759604 26.235385814497267  C 3.5136307311028503 26.422447388932184  3.2509293680297398 26.504286827747464  2.988228004956629 26.480904130943102  C 2.703634861627427 26.434138737334372  2.4737711689384554 26.30553390491037  2.298636926889715 26.095089633671087  L 0.26270136307311026 23.499610288386595  C 0.08756712102437013 23.265783320342944  0.01094589012804634 22.99103663289166  0.03283767038413878 22.67537022603274  C 0.05472945064023147 22.359703819173813  0.17513424204874026 22.108339828526887  0.3940520446096654 21.921278254091973  L 24.004337050805454 0.9119251753702273  C 24.704874019000414 0.30397505845673745  25.53676166873193 0  26.5 0  C 27.463238331268077 0  28.295125980999593 0.30397505845673745  28.995662949194546 0.9119251753702273  L 37.00805452292441 8.067030397505842  L 37.00805452292441 1.2275915822291483  C 37.00805452292441 0.9002338269680388  37.106567534076824 0.631332813717847  37.30359355638166 0.420888542478568  C 37.50061957868649 0.210444271239284  37.75237505163156 0.105222135619642  38.058859975216855 0.105222135619642  L 44.363692688971504 0.105222135619642  C 44.6701776125568 0.105222135619642  44.921933085501855 0.210444271239284  45.11895910780669 0.420888542478568  C 45.31598513011152 0.631332813717847  45.41449814126394 0.9002338269680388  45 1.2275915822291483  L 45 15.53780202650039  L 52.605947955390334 21.921278254091973  C 52.824865757951265 22.108339828526887  52.945270549359776 22.359703819173813  52.96716232961586 22.67537022603274  Z " fill-rule="nonzero" fill="#117101" stroke="none" fill-opacity="0.9529411764705882" transform="matrix(1 0 0 1 996 0 )" />
  </g>
</svg>