<?xml version="1.0" encoding="utf-8"?>
<svg version="1.1" xmlns:xlink="http://www.w3.org/1999/xlink" width="107px" height="37px" xmlns="http://www.w3.org/2000/svg">
  <g transform="matrix(1 0 0 1 -734 -23 )">
    <path d="M 736 28  A 3 3 0 0 1 739 25 L 836 25  A 3 3 0 0 1 839 28 L 839 55  A 3 3 0 0 1 836 58 L 739 58  A 3 3 0 0 1 736 55 L 736 28  Z " fill-rule="nonzero" fill="#0dc7a5" stroke="none" fill-opacity="0.8392156862745098" />
    <path d="M 735 28  A 4 4 0 0 1 739 24 L 836 24  A 4 4 0 0 1 840 28 L 840 55  A 4 4 0 0 1 836 59 L 739 59  A 4 4 0 0 1 735 55 L 735 28  Z " stroke-width="2" stroke="#17a572" fill="none" stroke-opacity="0.8509803921568627" />
  </g>
</svg>